<svg xmlns="http://www.w3.org/2000/svg" xmlns:xlink="http://www.w3.org/1999/xlink" viewBox="0 0 85 85" fill="#fff" fill-rule="evenodd" stroke="#000" stroke-linecap="round" stroke-linejoin="round"><use xlink:href="#A" x="2.5" y="2.5"/><symbol id="A" overflow="visible"><g stroke="none"><path d="M30.611 28.466H0v38.377c0 3.49 1.45 6.836 4.032 9.304S10.115 80 13.766 80h52.468c3.651 0 7.152-1.386 9.734-3.854S80 70.332 80 66.843v-50.15c0-3.49-1.45-6.836-4.032-9.304s-6.083-3.854-9.734-3.854H35.472v20.271c.004 1.235-.506 2.42-1.418 3.294s-2.151 1.366-3.442 1.366z" fill="#19486f"/><path d="M79.11 8.555l-.242-.591c-1.383-3.085-3.948-5.547-7.17-6.882l-.619-.231C69.536.292 67.9.004 66.249 0H13.766C6.163 0 0 5.891 0 13.158h0v50.15c0 3.49 1.45 6.836 4.032 9.304s6.083 3.854 9.734 3.854h52.468c3.651 0 7.152-1.386 9.734-3.854S80 66.797 80 63.308v-50.15h0c-.005-1.573-.307-3.132-.89-4.602z" fill="#2e73b8"/><path d="M64.815 58.778c.27-.101.405-.39.302-.649l-2.702-6.998c-.121-.303-.272-.346-.574-.245l-6.309 2.15c0-.101-12.996-32-16.106-39.733-.09-.381-.471-.632-.875-.577H26.687c-.513 0-.483.303-.468.75v7.012c0 .519.211.707.679.707h6.038a.63.63 0 0 1 .694.505l1.917 5.367a1.47 1.47 0 0 1-.136 1.443L14.913 62.414c-.099.158-.101.356-.003.515s.278.255.471.25h9.525c.194.002.374-.098.468-.26l14.506-25.104 10.566 25.609c.105.258.408.387.679.289l13.691-4.934z"/></g></symbol></svg>